<svg xmlns="http://www.w3.org/2000/svg" viewBox="0 0 100 87.08"><g id="Layer_2" data-name="Layer 2"><g id="Layer_1-2" data-name="Layer 1"><path d="M86.71,36.23H98.37c1.57,0,2.1,1.79,1.17,3C98.2,41,97.33,42,95.94,43.69q-7.12,8.79-14.28,17.57c-2.1,2.57-3.2,2.54-5.32-.06C70.43,53.92,64.5,46.65,58.62,39.35l0,0A1.92,1.92,0,0,1,60,36.27h0c3.73-.09,7.45,0,11.18,0,0-7.76-10.46-18.33-20.43-20.8a29,29,0,0,0-26,50.22C34.26,73.76,50,76.16,63.28,65l8.79,11.1C61.82,86.25,42.14,91.29,24.55,82.7,6.77,74-3.09,54.22.87,35.16,5,15.42,21.75.94,41.42,0,61.9-.89,82.08,12.8,86.71,36.23Z"/></g></g></svg>